<svg width="32" height="32" viewBox="0 0 32 32" fill="none" xmlns="http://www.w3.org/2000/svg">
<path d="M26.6667 24H24V12.3333L16 17.3333L8 12.3333V24H5.33333V7.99999H6.93333L16 13.6667L25.0667 7.99999H26.6667M26.6667 5.33333H5.33333C3.85333 5.33333 2.66666 6.51999 2.66666 7.99999V24C2.66666 24.7072 2.94762 25.3855 3.44771 25.8856C3.94781 26.3857 4.62609 26.6667 5.33333 26.6667H26.6667C27.3739 26.6667 28.0522 26.3857 28.5523 25.8856C29.0524 25.3855 29.3333 24.7072 29.3333 24V7.99999C29.3333 7.29275 29.0524 6.61447 28.5523 6.11438C28.0522 5.61428 27.3739 5.33333 26.6667 5.33333V5.33333Z" fill="black"/>
</svg>
