<svg width="32" height="32" viewBox="0 0 32 32" fill="none" xmlns="http://www.w3.org/2000/svg">
<path d="M16 15.3333C15.116 15.3333 14.2681 14.9821 13.643 14.357C13.0179 13.7319 12.6667 12.8841 12.6667 12C12.6667 11.1159 13.0179 10.2681 13.643 9.64298C14.2681 9.01786 15.116 8.66667 16 8.66667C16.8841 8.66667 17.7319 9.01786 18.357 9.64298C18.9821 10.2681 19.3333 11.1159 19.3333 12C19.3333 12.4377 19.2471 12.8712 19.0796 13.2756C18.9121 13.68 18.6666 14.0475 18.357 14.357C18.0475 14.6666 17.68 14.9121 17.2756 15.0796C16.8712 15.2471 16.4377 15.3333 16 15.3333M16 2.66667C13.5247 2.66667 11.1507 3.65 9.40034 5.40034C7.65 7.15068 6.66667 9.52465 6.66667 12C6.66667 19 16 29.3333 16 29.3333C16 29.3333 25.3333 19 25.3333 12C25.3333 9.52465 24.35 7.15068 22.5997 5.40034C20.8493 3.65 18.4754 2.66667 16 2.66667V2.66667Z" fill="black"/>
</svg>
