<svg width="31" height="11" viewBox="0 0 31 11" fill="none" xmlns="http://www.w3.org/2000/svg">
<path d="M15.5175 11C15.1472 11 14.8001 10.9648 14.4761 10.8944C14.1521 10.8251 13.8512 10.7067 13.5735 10.5391L0.729239 2.78792C0.220098 2.48067 -0.0224389 2.09632 0.00162964 1.63488C0.0238467 1.17455 0.289525 0.790765 0.798666 0.48351C1.30781 0.176256 1.95581 0.0226273 2.74266 0.0226273C3.52952 0.0226273 4.17751 0.176256 4.68666 0.48351L15.5175 7.01966L26.4177 0.441611C26.9269 0.134356 27.5638 -0.0125666 28.3284 0.000840891C29.0912 0.0153657 29.7271 0.176256 30.2363 0.48351C30.7454 0.790765 31 1.18182 31 1.65666C31 2.13151 30.7454 2.52256 30.2363 2.82982L17.4615 10.5391C17.1838 10.7067 16.8829 10.8251 16.5589 10.8944C16.2349 10.9648 15.8878 11 15.5175 11V11Z" fill="black"/>
</svg>
